0
SECTION
2
HEADER
9
$INSUNITS
70
4
9
$ACADVER
1
AC1014
9
$HANDSEED
5
FFFF
0
ENDSEC
0
SECTION
2
TABLES
0
TABLE
2
VPORT
5
8
100
AcDbSymbolTable
0
ENDTAB
0
TABLE
2
LTYPE
5
5
100
AcDbSymbolTable
0
LTYPE
5
14
100
AcDbSymbolTableRecord
100
AcDbLinetypeTableRecord
2
BYBLOCK
70
0
0
LTYPE
5
15
100
AcDbSymbolTableRecord
100
AcDbLinetypeTableRecord
2
BYLAYER
70
0
0
ENDTAB
0
TABLE
2
LAYER
5
2
100
AcDbSymbolTable
70
2
0
LAYER
5
50
100
AcDbSymbolTableRecord
100
AcDbLayerTableRecord
2
0
70
0
6
CONTINUOUS
0
ENDTAB
0
TABLE
2
STYLE
5
3
100
AcDbSymbolTable
70
1
0
STYLE
5
11
100
AcDbSymbolTableRecord
100
AcDbTextStyleTableRecord
2
STANDARD
70
0
0
ENDTAB
0
TABLE
2
VIEW
5
6
100
AcDbSymbolTable
70
0
0
ENDTAB
0
TABLE
2
UCS
5
7
100
AcDbSymbolTable
70
0
0
ENDTAB
0
TABLE
2
APPID
5
9
100
AcDbSymbolTable
70
2
0
APPID
5
12
100
AcDbSymbolTableRecord
100
AcDbRegAppTableRecord
2
ACAD
70
0
0
ENDTAB
0
TABLE
2
DIMSTYLE
5
A
100
AcDbSymbolTable
70
1
0
ENDTAB
0
TABLE
2
BLOCK_RECORD
5
1
100
AcDbSymbolTable
70
1
0
BLOCK_RECORD
5
1F
100
AcDbSymbolTableRecord
100
AcDbBlockTableRecord
2
*MODEL_SPACE
0
BLOCK_RECORD
5
1B
100
AcDbSymbolTableRecord
100
AcDbBlockTableRecord
2
*PAPER_SPACE
0
ENDTAB
0
ENDSEC
0
SECTION
2
BLOCKS
0
BLOCK
5
20
100
AcDbEntity
100
AcDbBlockBegin
2
*MODEL_SPACE
0
ENDBLK
5
21
100
AcDbEntity
100
AcDbBlockEnd
0
BLOCK
5
1C
100
AcDbEntity
100
AcDbBlockBegin
2
*PAPER_SPACE
0
ENDBLK
5
1D
100
AcDbEntity
100
AcDbBlockEnd
0
ENDSEC
0
SECTION
2
ENTITIES
0
LWPOLYLINE
5
100
100
AcDbEntity
8
0
100
AcDbPolyline
90
4
70
1
43
0.0
10
-12.350000000001716
20
17
10
-12.350000000001716
20
13.000000000000004
10
-7.8500000000017085
20
13.000000000000004
10
-7.8500000000017085
20
17
0
CIRCLE
5
101
100
AcDbEntity
8
0
100
AcDbCircle
10
16.28500000002408
20
14.75
30
0
40
0.80000000000000071
210
0
220
-0
230
1
0
CIRCLE
5
102
100
AcDbEntity
8
0
100
AcDbCircle
10
-16.285000000015582
20
14.75
30
0
40
0.80000000000000071
210
0
220
-0
230
1
0
LWPOLYLINE
5
103
100
AcDbEntity
8
0
100
AcDbPolyline
90
52
70
1
43
0.0
10
0.80000000000010285
20
0
10
0.79999999999989413
20
0.7000000000010953
10
1.5999999999998682
20
0.70000000000047136
10
1.5999999999995906
20
2.1000000000004526
10
-1.6000000000000192
20
2.1000000000012231
10
-1.6000000000001124
20
0.70000000000124185
10
-0.80000000000055138
20
0.70000000000185025
10
-0.80000000000051141
20
0
10
-5.2849999999637802
20
0
10
-5.2849999999637838
20
-3.9999999999999991
10
-9.7849999999638086
20
-4.0000000000000018
10
-9.784999999963782
20
0
10
-18.284999999971522
20
0
10
-18.285000000015266
20
4.5000000000000178
10
-14.285000000014445
20
4.5000000000000018
10
-14.285000000014215
20
8.9999999999999964
10
-18.285000000016179
20
9
10
-18.28500000001717
20
20.499999999999993
10
-14.285000000014275
20
20.49999999999994
10
-14.285000000013817
20
25
10
-18.285000000017888
20
25.000000000000043
10
-18.285000000018549
20
29.5
10
-9.7849999999637838
20
29.5
10
-9.7849999999637927
20
33.5
10
-5.2849999999637909
20
33.5
10
-5.284999999963782
20
29.5
10
-0.7999999999764662
20
29.5
10
-0.79999999997711679
20
28.79999999999999
10
-1.5999999999820935
20
28.799999999999986
10
-1.5999999999722547
20
27.399999999999984
10
1.6000000000277459
20
27.400000000000002
10
1.6000000000278525
20
28.800000000000004
10
0.80000000002287575
20
28.799999999999997
10
0.8000000000228713
20
29.5
10
5.2850000000222108
20
29.5
10
5.2850000000222019
20
33.5
10
9.785000000022027
20
33.5
10
9.7850000000220358
20
29.5
10
18.285000000024127
20
29.5
10
18.285000000023885
20
24.999999999999957
10
14.285000000024461
20
25
10
14.285000000024619
20
20.5
10
18.285000000023643
20
20.49999999999951
10
18.285000000023029
20
9.0000000000000231
10
14.285000000024514
20
9.0000000000000817
10
14.285000000024706
20
4.5000000000000009
10
18.285000000022787
20
4.5000000000000018
10
18.285000000022546
20
0
10
9.7850000000220358
20
0
10
9.7850000000220092
20
-3.9999999999999991
10
5.2850000000221815
20
-3.9999999999999991
10
5.2850000000222108
20
0
0
ENDSEC
0
SECTION
2
OBJECTS
0
DICTIONARY
5
C
100
AcDbDictionary
3
ACAD_GROUP
350
D
3
ACAD_MLINESTYLE
350
17
0
DICTIONARY
5
D
100
AcDbDictionary
0
DICTIONARY
5
1A
330
C
100
AcDbDictionary
0
DICTIONARY
5
17
100
AcDbDictionary
0
ENDSEC
0
EOF
