0
SECTION
2
HEADER
9
$INSUNITS
70
4
9
$ACADVER
1
AC1014
9
$HANDSEED
5
FFFF
0
ENDSEC
0
SECTION
2
TABLES
0
TABLE
2
VPORT
5
8
100
AcDbSymbolTable
0
ENDTAB
0
TABLE
2
LTYPE
5
5
100
AcDbSymbolTable
0
LTYPE
5
14
100
AcDbSymbolTableRecord
100
AcDbLinetypeTableRecord
2
BYBLOCK
70
0
0
LTYPE
5
15
100
AcDbSymbolTableRecord
100
AcDbLinetypeTableRecord
2
BYLAYER
70
0
0
ENDTAB
0
TABLE
2
LAYER
5
2
100
AcDbSymbolTable
70
2
0
LAYER
5
50
100
AcDbSymbolTableRecord
100
AcDbLayerTableRecord
2
0
70
0
6
CONTINUOUS
0
ENDTAB
0
TABLE
2
STYLE
5
3
100
AcDbSymbolTable
70
1
0
STYLE
5
11
100
AcDbSymbolTableRecord
100
AcDbTextStyleTableRecord
2
STANDARD
70
0
0
ENDTAB
0
TABLE
2
VIEW
5
6
100
AcDbSymbolTable
70
0
0
ENDTAB
0
TABLE
2
UCS
5
7
100
AcDbSymbolTable
70
0
0
ENDTAB
0
TABLE
2
APPID
5
9
100
AcDbSymbolTable
70
2
0
APPID
5
12
100
AcDbSymbolTableRecord
100
AcDbRegAppTableRecord
2
ACAD
70
0
0
ENDTAB
0
TABLE
2
DIMSTYLE
5
A
100
AcDbSymbolTable
70
1
0
ENDTAB
0
TABLE
2
BLOCK_RECORD
5
1
100
AcDbSymbolTable
70
1
0
BLOCK_RECORD
5
1F
100
AcDbSymbolTableRecord
100
AcDbBlockTableRecord
2
*MODEL_SPACE
0
BLOCK_RECORD
5
1B
100
AcDbSymbolTableRecord
100
AcDbBlockTableRecord
2
*PAPER_SPACE
0
ENDTAB
0
ENDSEC
0
SECTION
2
BLOCKS
0
BLOCK
5
20
100
AcDbEntity
100
AcDbBlockBegin
2
*MODEL_SPACE
0
ENDBLK
5
21
100
AcDbEntity
100
AcDbBlockEnd
0
BLOCK
5
1C
100
AcDbEntity
100
AcDbBlockBegin
2
*PAPER_SPACE
0
ENDBLK
5
1D
100
AcDbEntity
100
AcDbBlockEnd
0
ENDSEC
0
SECTION
2
ENTITIES
0
LWPOLYLINE
5
100
100
AcDbEntity
8
0
100
AcDbPolyline
90
4
70
1
43
0.0
10
-17.34999999999156
20
17
10
-17.34999999999156
20
13.000000000000004
10
-12.84999999999155
20
13.000000000000004
10
-12.84999999999155
20
17
0
LWPOLYLINE
5
101
100
AcDbEntity
8
0
100
AcDbPolyline
90
68
70
1
43
0.0
10
-18.499999999954564
20
29.5
10
-0.79999999996856264
20
29.5
10
-0.7999999999632712
20
28.799999999997294
10
-1.599999999957028
20
28.79999999999125
10
-1.5999999999527641
20
27.400000000000002
10
1.6000000000440835
20
27.399999999999991
10
1.6000000000436794
20
28.799999999999994
10
0.80000000004578897
20
28.799999999999976
10
0.80000000004578853
20
29.5
10
18.500000000017074
20
29.5
10
18.500000000017074
20
33.500000000000021
10
23.000000000019199
20
33.500000000000028
10
23.000000000019185
20
29.5
10
27.5
20
29.5
10
27.5
20
25.000000000000107
10
31.500000000045993
20
25.000000000000085
10
31.500000000045993
20
20.499999999999986
10
27.5
20
20.499999999999993
10
27.5
20
15.550000000000274
10
26.800000000045998
20
15.549999999999862
10
26.800000000045998
20
16.350000000000065
10
25.400000000045996
20
16.350000000000065
10
25.400000000045996
20
13.150000000000066
10
26.800000000045998
20
13.150000000000066
10
26.800000000046005
20
13.950000000000273
10
27.5
20
13.949999999999513
10
27.5
20
9
10
31.50000000004599
20
8.9999999999999947
10
31.50000000004599
20
4.5000000000000151
10
27.5
20
4.5000000000000178
10
27.5
20
0
10
23.000000000019185
20
0
10
23.000000000019185
20
-3.9999999999999369
10
18.500000000017074
20
-3.9999999999999414
10
18.500000000017074
20
0
10
0.80000000004575533
20
0
10
0.80000000004575467
20
0.70000000000000728
10
1.6000000000456482
20
0.70000000000000728
10
1.6000000000456482
20
2.1000000000000796
10
-1.5999999999543524
20
2.1000000000000751
10
-1.5999999999543524
20
0.7000000000000739
10
-0.79999999995447157
20
0.70000000000012275
10
-0.79999999995424398
20
0
10
-18.499999999954564
20
0
10
-18.499999999954564
20
-3.9999999999999902
10
-22.999999999954458
20
-3.9999999999999947
10
-22.999999999954458
20
0
10
-27.5
20
0
10
-27.5
20
4.5000000000000178
10
-31.499999999954692
20
4.4999999999987539
10
-31.499999999954692
20
8.9999999999987335
10
-27.5
20
9
10
-27.5
20
13.950000000001488
10
-26.79999999995912
20
13.950000000001488
10
-26.79999999995912
20
13.150000000001301
10
-25.399999999954694
20
13.149999999999995
10
-25.399999999954694
20
16.350000000000001
10
-26.799999999954697
20
16.350000000000001
10
-26.799999999954697
20
15.549999999999827
10
-27.5
20
15.549999999993636
10
-27.5
20
20.499999999999993
10
-31.499999999954692
20
20.499999999999133
10
-31.499999999954692
20
24.999999999999272
10
-27.5
20
25.000000000000107
10
-27.5
20
29.5
10
-22.999999999954458
20
29.5
10
-22.999999999954458
20
33.5
10
-18.499999999954557
20
33.500000000000007
0
ENDSEC
0
SECTION
2
OBJECTS
0
DICTIONARY
5
C
100
AcDbDictionary
3
ACAD_GROUP
350
D
3
ACAD_MLINESTYLE
350
17
0
DICTIONARY
5
D
100
AcDbDictionary
0
DICTIONARY
5
1A
330
C
100
AcDbDictionary
0
DICTIONARY
5
17
100
AcDbDictionary
0
ENDSEC
0
EOF
