0
SECTION
2
HEADER
9
$INSUNITS
70
4
9
$ACADVER
1
AC1014
9
$HANDSEED
5
FFFF
0
ENDSEC
0
SECTION
2
TABLES
0
TABLE
2
VPORT
5
8
100
AcDbSymbolTable
0
ENDTAB
0
TABLE
2
LTYPE
5
5
100
AcDbSymbolTable
0
LTYPE
5
14
100
AcDbSymbolTableRecord
100
AcDbLinetypeTableRecord
2
BYBLOCK
70
0
0
LTYPE
5
15
100
AcDbSymbolTableRecord
100
AcDbLinetypeTableRecord
2
BYLAYER
70
0
0
ENDTAB
0
TABLE
2
LAYER
5
2
100
AcDbSymbolTable
70
2
0
LAYER
5
50
100
AcDbSymbolTableRecord
100
AcDbLayerTableRecord
2
0
70
0
6
CONTINUOUS
0
ENDTAB
0
TABLE
2
STYLE
5
3
100
AcDbSymbolTable
70
1
0
STYLE
5
11
100
AcDbSymbolTableRecord
100
AcDbTextStyleTableRecord
2
STANDARD
70
0
0
ENDTAB
0
TABLE
2
VIEW
5
6
100
AcDbSymbolTable
70
0
0
ENDTAB
0
TABLE
2
UCS
5
7
100
AcDbSymbolTable
70
0
0
ENDTAB
0
TABLE
2
APPID
5
9
100
AcDbSymbolTable
70
2
0
APPID
5
12
100
AcDbSymbolTableRecord
100
AcDbRegAppTableRecord
2
ACAD
70
0
0
ENDTAB
0
TABLE
2
DIMSTYLE
5
A
100
AcDbSymbolTable
70
1
0
ENDTAB
0
TABLE
2
BLOCK_RECORD
5
1
100
AcDbSymbolTable
70
1
0
BLOCK_RECORD
5
1F
100
AcDbSymbolTableRecord
100
AcDbBlockTableRecord
2
*MODEL_SPACE
0
BLOCK_RECORD
5
1B
100
AcDbSymbolTableRecord
100
AcDbBlockTableRecord
2
*PAPER_SPACE
0
ENDTAB
0
ENDSEC
0
SECTION
2
BLOCKS
0
BLOCK
5
20
100
AcDbEntity
100
AcDbBlockBegin
2
*MODEL_SPACE
0
ENDBLK
5
21
100
AcDbEntity
100
AcDbBlockEnd
0
BLOCK
5
1C
100
AcDbEntity
100
AcDbBlockBegin
2
*PAPER_SPACE
0
ENDBLK
5
1D
100
AcDbEntity
100
AcDbBlockEnd
0
ENDSEC
0
SECTION
2
ENTITIES
0
CIRCLE
5
100
100
AcDbEntity
8
0
100
AcDbCircle
10
2.7714081030083403e-11
20
29.49999999994575
30
0
40
0.80000000000000016
210
0
220
-0
230
1
0
CIRCLE
5
101
100
AcDbEntity
8
0
100
AcDbCircle
10
16.285000000026063
20
-5.4136695126771883e-11
30
0
40
0.80000000000000071
210
0
220
-0
230
1
0
CIRCLE
5
102
100
AcDbEntity
8
0
100
AcDbCircle
10
-16.284999999969632
20
-3.8531400292640741e-11
30
0
40
0.80000000000000071
210
0
220
-0
230
1
0
CIRCLE
5
103
100
AcDbEntity
8
0
100
AcDbCircle
10
2.9010682744969217e-11
20
-29.50000000003854
30
0
40
0.80000000000000016
210
0
220
-0
230
1
0
LWPOLYLINE
5
104
100
AcDbEntity
8
0
100
AcDbPolyline
90
36
70
1
43
0.0
10
-18.284999999971522
20
18.499999999954564
10
-14.28499999996497
20
18.499999999954476
10
-14.284999999964324
20
22.999999999954465
10
-18.284999999971522
20
22.999999999954458
10
-18.284999999971522
20
31.499999999954692
10
-9.7849999999637767
20
31.499999999950774
10
-9.7849999999637838
20
27.499999999951562
10
-5.284999999963782
20
27.49999999994866
10
-5.2849999999637909
20
31.499999999948692
10
5.285000000022011
20
31.499999999943817
10
5.2850000000222108
20
27.499999999941839
10
9.7850000000220341
20
27.499999999938932
10
9.7850000000220394
20
31.499999999941739
10
18.285000000022546
20
31.499999999937813
10
18.285000000019611
20
22.999999999936026
10
14.285000000025052
20
22.999999999936055
10
14.285000000028063
20
18.499999999936104
10
18.285000000018062
20
18.499999999936023
10
18.285000000005294
20
-18.500000000045354
10
14.285000000052834
20
-18.500000000046818
10
14.285000000055845
20
-23.000000000045262
10
18.285000000003741
20
-23.000000000043013
10
18.285000000000807
20
-31.500000000045532
10
9.7850000000543691
20
-31.500000000045638
10
9.785000000059604
20
-27.500000000040895
10
5.2850000000593056
20
-27.500000000036252
10
5.2850000000584973
20
-31.500000000045695
10
-5.2849999999755681
20
-31.50000000004583
10
-5.2849999999753035
20
-27.500000000025345
10
-9.7849999999717667
20
-27.500000000020698
10
-9.7849999999760726
20
-31.500000000045887
10
-18.284999999971525
20
-31.50000000004599
10
-18.284999999971525
20
-23.000000000019185
10
-14.28499999997095
20
-23.000000000017316
10
-14.284999999970299
20
-18.500000000017135
10
-18.284999999971525
20
-18.500000000017074
0
LWPOLYLINE
5
105
100
AcDbEntity
8
0
100
AcDbPolyline
90
4
70
1
43
0.0
10
-12.000000178788461
20
16.000000238372941
10
12.000000178839407
20
16.000000238372941
10
12.000000178839407
20
25.000000372483392
10
-12.000000178788461
20
25.000000372483392
0
ENDSEC
0
SECTION
2
OBJECTS
0
DICTIONARY
5
C
100
AcDbDictionary
3
ACAD_GROUP
350
D
3
ACAD_MLINESTYLE
350
17
0
DICTIONARY
5
D
100
AcDbDictionary
0
DICTIONARY
5
1A
330
C
100
AcDbDictionary
0
DICTIONARY
5
17
100
AcDbDictionary
0
ENDSEC
0
EOF
